<?xml version="1.0" encoding="UTF-8"?>
<svg version="1.1" xmlns="http://www.w3.org/2000/svg" width="413" height="413">
<path d="M0 0 C136.29 0 272.58 0 413 0 C413 136.29 413 272.58 413 413 C276.71 413 140.42 413 0 413 C0 276.71 0 140.42 0 0 Z " fill="#010101" transform="translate(0,0)"/>
<path d="M0 0 C12.30177798 -0.06999627 24.60350735 -0.12306038 36.9054451 -0.15543652 C42.61981571 -0.17098773 48.33404851 -0.19202952 54.04833984 -0.22631836 C59.57917352 -0.25929269 65.10987597 -0.27693192 70.64080048 -0.28463173 C72.73435274 -0.29010779 74.82789911 -0.30079734 76.92139435 -0.31719017 C107.26736585 -0.54501755 134.63060951 4.25454107 158 25 C158.67289063 25.59039062 159.34578125 26.18078125 160.0390625 26.7890625 C174.70120607 40.51656744 183.35859613 58.72836814 188 78 C188.2477417 78.99531738 188.2477417 78.99531738 188.50048828 80.01074219 C196.06774499 111.76661365 191.87932357 150.67010393 174.66674805 178.67675781 C170.47641646 185.1244867 165.45415546 190.60800015 160 196 C159.19820312 196.81210937 158.39640625 197.62421875 157.5703125 198.4609375 C135.84152652 219.33482042 106.650382 223.67531844 77.83203125 223.390625 C75.57232673 223.38314303 73.31261562 223.37745938 71.05290222 223.37347412 C65.17242781 223.35837161 59.29236336 223.31922658 53.41204834 223.2746582 C47.38478131 223.23336925 41.35744652 223.21539206 35.33007812 223.1953125 C23.5532076 223.15271404 11.7766382 223.08465462 0 223 C0 220.69 0 218.38 0 216 C0.60062256 215.97494385 1.20124512 215.9498877 1.82006836 215.92407227 C4.52611437 215.8084472 7.23178283 215.68557064 9.9375 215.5625 C10.88302734 215.52318359 11.82855469 215.48386719 12.80273438 215.44335938 C14.15141602 215.38051758 14.15141602 215.38051758 15.52734375 215.31640625 C16.35999756 215.27974854 17.19265137 215.24309082 18.05053711 215.20532227 C20.00338858 215.20632897 20.00338858 215.20632897 21 214 C21.15764405 212.22130274 21.25100677 210.43681524 21.31640625 208.65234375 C21.37356812 207.19429321 21.37356812 207.19429321 21.43188477 205.70678711 C21.49653931 203.84098999 21.49653931 203.84098999 21.5625 201.9375 C21.706875 197.998125 21.85125 194.05875 22 190 C31.57 190 41.14 190 51 190 C51 197.59 51 205.18 51 213 C57.38373903 212.97167361 63.76391047 212.9279539 70.14672852 212.84741211 C72.31006564 212.82446106 74.47351088 212.8098912 76.63696289 212.80444336 C98.51744219 212.73855357 116.63671905 209.59555081 133.25 194.375 C154.05866779 171.78400521 160.46467452 141.16955856 160.3125 111.3125 C160.31067719 110.56776428 160.30885437 109.82302856 160.30697632 109.0557251 C160.25946032 97.50299204 159.78616565 86.25709643 157 75 C156.75056641 73.9788208 156.75056641 73.9788208 156.49609375 72.93701172 C151.56392034 53.61476571 140.95286624 31.51205006 123.22460938 20.94140625 C121.21132089 19.81332237 119.17938047 18.73881967 117.125 17.6875 C116.17149658 17.19866333 116.17149658 17.19866333 115.19873047 16.69995117 C105.97590895 12.24167406 96.83053789 10.55529271 86.64453125 10.48828125 C85.10305672 10.46135445 85.10305672 10.46135445 83.53044128 10.43388367 C80.29116763 10.38028012 77.05203697 10.34604657 73.8125 10.3125 C71.5982876 10.27928276 69.38409395 10.24478912 67.16992188 10.20898438 C61.77993303 10.12221181 56.39056502 10.0617159 51 10 C51 17.59 51 25.18 51 33 C41.43 33 31.86 33 22 33 C21.5625 21.0625 21.5625 21.0625 21.43188477 17.29321289 C21.3747229 15.83516235 21.3747229 15.83516235 21.31640625 14.34765625 C21.27974854 13.34742432 21.24309082 12.34719238 21.20532227 11.31665039 C21.25328159 9.03930812 21.25328159 9.03930812 20 8 C18.51361008 7.84344973 17.02050873 7.74933057 15.52734375 7.68359375 C14.17866211 7.62075195 14.17866211 7.62075195 12.80273438 7.55664062 C11.85720703 7.51732422 10.91167969 7.47800781 9.9375 7.4375 C8.98810547 7.39431641 8.03871094 7.35113281 7.06054688 7.30664062 C4.70718647 7.20020724 2.35371646 7.09818992 0 7 C0 4.69 0 2.38 0 0 Z " fill="#FAFAFA" transform="translate(138,96)"/>
<path d="M0 0 C0.63340302 0.07064667 1.26680603 0.14129333 1.91940308 0.21408081 C11.96831331 1.20118721 21.98496884 1.14531281 32.0703125 1.1328125 C34.00218722 1.13348763 35.93406185 1.13445939 37.86593628 1.13571167 C41.89517025 1.13717811 45.92438192 1.13506769 49.95361328 1.13037109 C55.09546237 1.12466676 60.23725933 1.127964 65.37910652 1.13394356 C69.36156603 1.13757115 73.34401334 1.13640063 77.32647324 1.13381577 C79.22172934 1.13315297 81.11698659 1.13395205 83.01224136 1.13629532 C96.53576188 1.16042216 96.53576188 1.16042216 110 0 C109.92901093 0.611922 109.85802185 1.22384399 109.78488159 1.85430908 C108.90627123 9.59591535 108.6730072 17.34168016 108.4375 25.125 C108.39418869 26.47657242 108.35057098 27.82813506 108.30664062 29.1796875 C108.20142566 32.45304194 108.09928521 35.72646125 108 39 C106.35 39 104.7 39 103 39 C102.5176843 36.18800846 102.03908565 33.37546366 101.5625 30.5625 C101.36043945 29.3878418 101.36043945 29.3878418 101.15429688 28.18945312 C100.35169987 23.43259769 99.75294802 18.74290681 99.45678711 13.92553711 C99.0700103 11.54521219 99.0700103 11.54521219 96 9 C85.44 8.67 74.88 8.34 64 8 C64.33 51.23 64.66 94.46 65 139 C72.26 139.33 79.52 139.66 87 140 C87 141.32 87 142.64 87 144 C65.88 144 44.76 144 23 144 C23 142.68 23 141.36 23 140 C30.59 139.67 38.18 139.34 46 139 C46 95.77 46 52.54 46 8 C26.78787769 5.53742032 26.78787769 5.53742032 11 11 C10.45837061 13.56371066 10.45837061 13.56371066 10.18359375 16.55859375 C10.05919922 17.66654297 9.93480469 18.77449219 9.80664062 19.91601562 C9.68482422 21.07810547 9.56300781 22.24019531 9.4375 23.4375 C9.18893058 25.72816277 8.93774803 28.01854391 8.68359375 30.30859375 C8.57587646 31.32751709 8.46815918 32.34644043 8.35717773 33.39624023 C8 36 8 36 7 39 C5.35 39 3.7 39 2 39 C1.96241577 38.02728149 1.96241577 38.02728149 1.92407227 37.03491211 C1.44151961 24.67565525 0.90142482 12.33616075 0 0 Z " fill="#FEFEFE" transform="translate(119,135)"/>
<path d="M0 0 C0.33 0 0.66 0 1 0 C1 7.92 1 15.84 1 24 C2.65 24 4.3 24 6 24 C5.34 24.33 4.68 24.66 4 25 C4.27783829 25.6233876 4.55567657 26.24677521 4.8419342 26.88905334 C7.73329957 33.3854299 10.60064709 39.89202147 13.4543457 46.4050293 C14.5221243 48.83350829 15.59597474 51.25932704 16.67602539 53.68237305 C18.22850316 57.16812503 19.75880847 60.6628978 21.28515625 64.16015625 C21.77154068 65.23959 22.25792511 66.31902374 22.75904846 67.4311676 C26.89909933 77.02194394 26.89909933 77.02194394 25 83 C20.39137321 88.79370224 15.16566292 90.99136936 8 92 C-1.61896501 92.98688083 -8.95742468 91.56597276 -17 86 C-19.36518481 83.64487981 -19.96077557 82.55208385 -20.19897461 79.19943237 C-19.99133903 75.860735 -19.31571033 73.68702019 -17.98046875 70.63720703 C-17.31978394 69.10629929 -17.31978394 69.10629929 -16.64575195 67.54446411 C-16.16452881 66.45986908 -15.68330566 65.37527405 -15.1875 64.2578125 C-14.69918701 63.13430389 -14.21087402 62.01079529 -13.70776367 60.85324097 C-12.14871052 57.27260602 -10.57459582 53.69882333 -9 50.125 C-7.93910408 47.69574901 -6.87919638 45.26606619 -5.8203125 42.8359375 C-3.22497976 36.88557015 -0.61725612 30.94075443 2 25 C1.34 25 0.68 25 0 25 C0 16.75 0 8.5 0 0 Z " fill="#EDEDED" transform="translate(120,150)"/>
<path d="M0 0 C1.65 0 3.3 0 5 0 C5.12479233 0.7262709 5.24958466 1.45254181 5.37815857 2.20082092 C5.98520407 4.93339709 6.82800615 7.22761391 7.94946289 9.78686523 C8.3498024 10.70809677 8.75014191 11.62932831 9.16261292 12.57847595 C9.59492722 13.56191483 10.02724152 14.5453537 10.47265625 15.55859375 C11.38119907 17.65675398 12.28939148 19.75506597 13.19726562 21.85351562 C14.63047112 25.15143726 16.06701449 28.44780438 17.51000977 31.74145508 C18.90300238 34.92642385 20.28241563 38.1170037 21.66015625 41.30859375 C22.09449478 42.29000839 22.52883331 43.27142303 22.97633362 44.28257751 C26.77999216 53.13492382 26.77999216 53.13492382 26 58 C21.67932856 63.49903638 15.90925188 66.93781633 9 68 C-0.98463942 68.79824771 -9.01574908 67.86533744 -17.0625 61.625 C-19.3502095 58.52552261 -19.73273395 56.82592783 -20 53 C-19.06298828 49.80639648 -19.06298828 49.80639648 -17.5703125 46.37109375 C-17.30436783 45.74751984 -17.03842316 45.12394592 -16.76441956 44.48147583 C-15.89858882 42.46045775 -15.01212777 40.44924844 -14.125 38.4375 C-13.52571026 37.04934573 -12.9278173 35.66058763 -12.33129883 34.27124023 C-11.1348819 31.49078505 -9.93044087 28.71404879 -8.71826172 25.94042969 C-6.74024626 21.41253524 -4.80177838 16.8680639 -2.86474609 12.32250977 C-1.25308784 8.54403682 0.37271629 4.77176613 2 1 C1.34 0.67 0.68 0.34 0 0 Z " fill="#F1F1F1" transform="translate(222,174)"/>
<path d="M0 0 C1.59071274 2.38606911 2.67883104 4.38021293 3.78759766 6.98071289 C4.29790024 8.17193504 4.29790024 8.17193504 4.81851196 9.38722229 C5.18004364 10.2404155 5.54157532 11.0936087 5.9140625 11.97265625 C6.28856537 12.85150986 6.66306824 13.73036346 7.04891968 14.635849 C7.83883069 16.49201521 8.6271738 18.34884934 9.4140625 20.20629883 C10.62266028 23.05698138 11.83834743 25.9045669 13.0546875 28.75195312 C13.82074224 30.55450493 14.58638153 32.35723336 15.3515625 34.16015625 C15.71714264 35.01537369 16.08272278 35.87059113 16.4593811 36.75172424 C16.7932785 37.54272018 17.1271759 38.33371613 17.47119141 39.14868164 C17.76716217 39.84578751 18.06313293 40.54289337 18.36807251 41.26112366 C19 43 19 43 19 45 C6.46 45 -6.08 45 -19 45 C-17.00275827 39.0082748 -14.95491468 33.26980253 -12.4609375 27.5 C-11.97145126 26.35736694 -11.97145126 26.35736694 -11.47207642 25.19165039 C-10.78976635 23.60113983 -10.10569873 22.01138215 -9.41992188 20.42236328 C-8.36644217 17.98016102 -7.31956489 15.53520315 -6.2734375 13.08984375 C-5.60715517 11.53889733 -4.94050217 9.98811009 -4.2734375 8.4375 C-3.95990326 7.7053125 -3.64636902 6.973125 -3.32333374 6.21875 C-1.11555684 1.11555684 -1.11555684 1.11555684 0 0 Z " fill="#040404" transform="translate(225,183)"/>
<path d="M0 0 C0.66 0 1.32 0 2 0 C4.56853076 5.94265242 7.13145122 11.8877007 9.69042969 17.83447266 C10.56217583 19.85847088 11.43521918 21.8819109 12.30957031 23.90478516 C13.56394007 26.80747073 14.81367676 29.71211213 16.0625 32.6171875 C16.45622803 33.52556366 16.84995605 34.43393982 17.25561523 35.36984253 C17.79617554 36.63092331 17.79617554 36.63092331 18.34765625 37.91748047 C18.66742432 38.65916473 18.98719238 39.400849 19.31665039 40.16500854 C20 42 20 42 20 44 C7.46 44 -5.08 44 -18 44 C-15.99646408 37.98939224 -13.93909583 32.24625668 -11.42578125 26.46484375 C-11.09708542 25.70071671 -10.76838959 24.93658966 -10.42973328 24.14930725 C-9.3940908 21.74387298 -8.3533965 19.34066466 -7.3125 16.9375 C-6.60317815 15.29246318 -5.8941908 13.64728209 -5.18554688 12.00195312 C-3.46088756 7.99962644 -1.73169865 3.99928569 0 0 Z " fill="#040404" transform="translate(122,184)"/>
<path d="M0 0 C2.87666273 1.33061492 5.21136636 2.82287977 7.625 4.875 C8.21539062 5.36742187 8.80578125 5.85984375 9.4140625 6.3671875 C12.26951303 9.30703558 13 11.33095712 13 15.4375 C11.70479166 20.0516797 10.03318066 21.48877431 6 24 C3.125 24.6875 3.125 24.6875 0 24 C-2.85414786 22.21140068 -5.40310579 20.13731592 -8 18 C-8.99 17.34 -9.98 16.68 -11 16 C-11 15.34 -11 14.68 -11 14 C-10.29875 13.835 -9.5975 13.67 -8.875 13.5 C-4.75624474 11.35108421 -2.22623032 8.05464628 0 4 C0 2.68 0 1.36 0 0 Z " fill="#DFDFDF" transform="translate(92,308)"/>
<path d="M0 0 C1.60517097 0.08733576 3.20921662 0.19552224 4.8125 0.3125 C6.15248047 0.39951172 6.15248047 0.39951172 7.51953125 0.48828125 C10.33280973 1.06865838 11.34560205 1.67490018 13 4 C12.6875 6.6875 12.6875 6.6875 12 9 C11.01 9.33 10.02 9.66 9 10 C11.24643894 16.7791194 11.24643894 16.7791194 16 22 C12.75 22.0625 12.75 22.0625 9 21 C7.57499516 18.7433814 6.70412389 16.54753981 5.82421875 14.03125 C5.18665441 11.8180581 5.18665441 11.8180581 3 11 C3 13.64 3 16.28 3 19 C0.69 19 -1.62 19 -4 19 C-4.33 18.34 -4.66 17.68 -5 17 C-4.01 16.67 -3.02 16.34 -2 16 C-0.80911014 10.61972975 0.2919519 5.54708616 0 0 Z " fill="#EAEAEA" transform="translate(165,349)"/>
<path d="M0 0 C0.66 0.33 1.32 0.66 2 1 C2.35029884 2.66318358 2.68014694 4.33069388 3 6 C3.8082175 7.91587296 4.66443861 9.81206126 5.5625 11.6875 C8 16.79036827 8 16.79036827 8 19 C3.59041892 18.33392561 -0.26572186 16.73375271 -4.3125 14.9375 C-4.95767578 14.65583984 -5.60285156 14.37417969 -6.26757812 14.08398438 C-7.84698358 13.3937257 -9.42376493 12.69746802 -11 12 C-10.71125 12.55429687 -10.4225 13.10859375 -10.125 13.6796875 C-9.568125 14.76636719 -9.568125 14.76636719 -9 15.875 C-8.62875 16.59429687 -8.2575 17.31359375 -7.875 18.0546875 C-7 20 -7 20 -7 22 C-5.68 22.33 -4.36 22.66 -3 23 C-5.375 24.5625 -5.375 24.5625 -8 26 C-8.66 25.67 -9.32 25.34 -10 25 C-10.144375 23.96875 -10.28875 22.9375 -10.4375 21.875 C-11.0621335 17.57196926 -11.97334733 14.82812171 -14 11 C-16.0351761 9.5181036 -16.0351761 9.5181036 -18 9 C-14.82143414 6.88095609 -13.82454527 6.74859974 -10.18359375 7.375 C-5.57519175 8.69404172 -1.29320956 10.89609441 3 13 C2.4070085 11.53708696 1.80016177 10.07978487 1.1875 8.625 C0.85105469 7.81289063 0.51460938 7.00078125 0.16796875 6.1640625 C-0.94439082 3.69852542 -0.94439082 3.69852542 -4 2 C-2.125 0.9375 -2.125 0.9375 0 0 Z " fill="#E6E6E6" transform="translate(285,334)"/>
<path d="M0 0 C0.33773437 1.19238281 0.67546875 2.38476562 1.0234375 3.61328125 C1.47368467 5.17976618 1.92422058 6.74616815 2.375 8.3125 C2.59671875 9.09818359 2.8184375 9.88386719 3.046875 10.69335938 C3.26601562 11.45068359 3.48515625 12.20800781 3.7109375 12.98828125 C3.90993652 13.68477783 4.10893555 14.38127441 4.31396484 15.09887695 C5.01712196 17.2849698 5.01712196 17.2849698 7 20 C4.03 20 1.06 20 -2 20 C-2 19.34 -2 18.68 -2 18 C-1.34 18 -0.68 18 0 18 C0 16.35 0 14.7 0 13 C-2.31 13 -4.62 13 -7 13 C-7 14.65 -7 16.3 -7 18 C-6.34 18 -5.68 18 -5 18 C-5 18.66 -5 19.32 -5 20 C-7.64 20 -10.28 20 -13 20 C-13 19.34 -13 18.68 -13 18 C-12.35224609 17.41605469 -12.35224609 17.41605469 -11.69140625 16.8203125 C-9.27649025 14.22134978 -8.22218942 11.12779417 -6.9375 7.875 C-3.81736527 0 -3.81736527 0 0 0 Z " fill="#DDDDDD" transform="translate(205,353)"/>
<path d="M0 0 C-0.185625 0.5775 -0.37125 1.155 -0.5625 1.75 C-1.15003792 3.92449882 -1.15003792 3.92449882 -0.5625 5.75 C0.30058861 9.20235445 0.60985201 12.50028108 0 16 C-2.43415273 19.43645091 -3.88775154 20.74510973 -8 21.6875 C-11.39357957 20.90980468 -12.89418586 19.70814257 -14.97265625 16.92578125 C-16.50593462 14.05161306 -17.04773022 11.15312778 -17.54296875 7.953125 C-17.87101143 5.77739048 -17.87101143 5.77739048 -20 4 C-15.375 1.875 -15.375 1.875 -12 3 C-12.20496094 3.55171875 -12.40992188 4.1034375 -12.62109375 4.671875 C-13.12113992 7.74432361 -12.29298564 9.41615428 -11.0625 12.25 C-10.49208984 13.58804687 -10.49208984 13.58804687 -9.91015625 14.953125 C-9.60980469 15.62859375 -9.30945313 16.3040625 -9 17 C-7.02 16.67 -5.04 16.34 -3 16 C-2.90235126 11.21521178 -3.22887459 6.72314313 -4 2 C-4.66 2 -5.32 2 -6 2 C-6 1.34 -6 0.68 -6 0 C-3 -1 -3 -1 0 0 Z " fill="#E1E1E1" transform="translate(259,347)"/>
<path d="M0 0 C1.9375 0.375 1.9375 0.375 4 1 C5.56935594 4.13871188 5.35201103 6.53855822 5 10 C2.875 12.9375 2.875 12.9375 0 15 C-3.125 15.5 -3.125 15.5 -6 15 C-7.875 13.5 -7.875 13.5 -9 12 C-7.55575365 8.76138697 -5.74227753 6.38030837 -3.375 3.75 C-2.74335937 3.04359375 -2.11171875 2.3371875 -1.4609375 1.609375 C-0.97882813 1.07828125 -0.49671875 0.5471875 0 0 Z " fill="#060606" transform="translate(96,314)"/>
<path d="M0 0 C4.30764815 1.56641751 8.06171464 3.68336156 12 6 C11.67 7.32 11.34 8.64 11 10 C10.01 8.68 9.02 7.36 8 6 C6.05000871 6.19471111 6.05000871 6.19471111 4 7 C2.71563266 8.9837767 2.71563266 8.9837767 2 11 C3.65 11.33 5.3 11.66 7 12 C6.34 13.32 5.68 14.64 5 16 C4.34 15.01 3.68 14.02 3 13 C2.01 12.67 1.02 12.34 0 12 C-0.33 14.31 -0.66 16.62 -1 19 C1.31 19.33 3.62 19.66 6 20 C5.34 20.99 4.68 21.98 4 23 C-0.61513112 21.68139111 -4.09897612 19.78644563 -8 17 C-4 11 -4 11 0 5 C0.16713569 2.37468476 0.16713569 2.37468476 0 0 Z " fill="#DFDFDF" transform="translate(116,327)"/>
<path d="M0 0 C0.66 0 1.32 0 2 0 C2.33 1.65 2.66 3.3 3 5 C1.02 5 -0.96 5 -3 5 C-1.11408904 11.03491509 2.75601839 16.50401226 8 20 C5.36 21.65 2.72 23.3 0 25 C-0.04125 24.01 -0.0825 23.02 -0.125 22 C-0.79620952 17.17321387 -3.52040322 13.33244966 -7 10 C-7.99 10 -8.98 10 -10 10 C-10.33 11.65 -10.66 13.3 -11 15 C-11.66 14.67 -12.32 14.34 -13 14 C-13 12.68 -13 11.36 -13 10 C-10.6640625 8.18359375 -10.6640625 8.18359375 -7.625 6.4375 C-3.19704006 3.90189034 -3.19704006 3.90189034 0 0 Z " fill="#E2E2E2" transform="translate(309,317)"/>
<path d="M0 0 C0.69480469 0.28617187 1.38960937 0.57234375 2.10546875 0.8671875 C5.1464265 2.05730592 8.21132475 3.10263453 11.3125 4.125 C12.38113281 4.47820312 13.44976562 4.83140625 14.55078125 5.1953125 C15.35902344 5.46085937 16.16726562 5.72640625 17 6 C16.34 7.32 15.68 8.64 15 10 C14.67 9.01 14.34 8.02 14 7 C12.35 7 10.7 7 9 7 C5.43727781 14.12817312 5.43727781 14.12817312 5 22 C2.23723823 21.47731534 -0.3260876 20.89130413 -3 20 C-3 19.34 -3 18.68 -3 18 C-2.01 18 -1.02 18 0 18 C0.4803318 16.41701974 0.95921612 14.83360022 1.4375 13.25 C1.83775391 11.92742187 1.83775391 11.92742187 2.24609375 10.578125 C2.88468494 8.39434165 3.46775833 6.21164502 4 4 C2.02 4 0.04 4 -2 4 C-1.34 2.68 -0.68 1.36 0 0 Z " fill="#E0E0E0" transform="translate(139,339)"/>
<path d="M0 0 C0.99 0.33 1.98 0.66 3 1 C3.33 3.97 3.66 6.94 4 10 C2.02 10 0.04 10 -2 10 C-2 11.65 -2 13.3 -2 15 C-1.34 15 -0.68 15 0 15 C0 15.66 0 16.32 0 17 C-2.64 17 -5.28 17 -8 17 C-8 16.34 -8 15.68 -8 15 C-7.56042969 14.59136719 -7.12085938 14.18273437 -6.66796875 13.76171875 C-4.40873422 11.37550148 -3.52300322 8.85511621 -2.3125 5.8125 C-1.87550781 4.72582031 -1.43851563 3.63914062 -0.98828125 2.51953125 C-0.66214844 1.68808594 -0.33601562 0.85664063 0 0 Z " fill="#959595" transform="translate(200,356)"/>
<path d="M0 0 C7.34312796 0.60189573 7.34312796 0.60189573 10.0625 2.25 C11 4 11 4 10.9375 6.5625 C10 9 10 9 8.1875 10.375 C6 11 6 11 2 10 C2.33 7.03 2.66 4.06 3 1 C2.01 0.67 1.02 0.34 0 0 Z " fill="#D7D7D7" transform="translate(167,349)"/>
<path d="M0 0 C1.5625 1.0625 1.5625 1.0625 3 3 C3.08615999 7.65263943 2.47639523 9.47928893 -0.6875 12.9375 C-4.23847537 15.14848467 -5.91212349 15.48665196 -10 15 C-10.33 14.34 -10.66 13.68 -11 13 C-10.0925 12.608125 -9.185 12.21625 -8.25 11.8125 C-4.77825077 9.87633216 -3.13595875 8.3226025 -1 5 C-0.21053391 2.31492671 -0.21053391 2.31492671 0 0 Z " fill="#E5E5E5" transform="translate(102,317)"/>
<path d="M0 0 C-0.185625 0.5775 -0.37125 1.155 -0.5625 1.75 C-1.15003792 3.92449882 -1.15003792 3.92449882 -0.5625 5.75 C0.32144971 9.28579885 0.23183913 12.34853364 0 16 C-1.5 18 -1.5 18 -3 19 C-3.66 18.34 -4.32 17.68 -5 17 C-4.34 16.67 -3.68 16.34 -3 16 C-2.90235126 11.21521178 -3.22887459 6.72314313 -4 2 C-4.66 2 -5.32 2 -6 2 C-6 1.34 -6 0.68 -6 0 C-3 -1 -3 -1 0 0 Z " fill="#C5C5C5" transform="translate(259,347)"/>
<path d="M0 0 C2 1 2 1 3.0625 3.8125 C3.76526962 6.2019167 4.44016804 8.57406149 5 11 C6.32 11.33 7.64 11.66 9 12 C6.625 13.5625 6.625 13.5625 4 15 C3.34 14.67 2.68 14.34 2 14 C1.63473747 11.67145135 1.30649316 9.33701038 1 7 C0.37743972 4.98583438 -0.27566653 2.97984481 -1 1 C-0.67 0.67 -0.34 0.34 0 0 Z " fill="#C2C2C2" transform="translate(273,345)"/>
<path d="M0 0 C0.99 0.33 1.98 0.66 3 1 C3.125 3.375 3.125 3.375 3 6 C2.34 6.66 1.68 7.32 1 8 C0.01 8 -0.98 8 -2 8 C-1.125 1.125 -1.125 1.125 0 0 Z " fill="#0D0D0D" transform="translate(171,351)"/>
<path d="M0 0 C0.66 0.33 1.32 0.66 2 1 C2.37872934 2.65694085 2.70250054 4.32656552 3 6 C3.64389782 8.00744615 4.30562253 10.00945124 5 12 C4.34 12.66 3.68 13.32 3 14 C2.61908203 12.95199219 2.61908203 12.95199219 2.23046875 11.8828125 C1.88628906 10.97273438 1.54210937 10.06265625 1.1875 9.125 C0.85105469 8.22007812 0.51460938 7.31515625 0.16796875 6.3828125 C-0.89649024 3.70574151 -0.89649024 3.70574151 -4 2 C-2.125 0.9375 -2.125 0.9375 0 0 Z " fill="#CBCBCB" transform="translate(285,334)"/>
<path d="M0 0 C0.33 1.65 0.66 3.3 1 5 C-0.98 5 -2.96 5 -5 5 C-5.33 5.99 -5.66 6.98 -6 8 C-6.33 7.01 -6.66 6.02 -7 5 C-2.25 0 -2.25 0 0 0 Z " fill="#C7C7C7" transform="translate(311,317)"/>
<path d="M0 0 C2.97 1.98 2.97 1.98 6 4 C5.67 5.98 5.34 7.96 5 10 C4.67 10 4.34 10 4 10 C3.87625 8.329375 3.87625 8.329375 3.75 6.625 C3.42126213 2.94246056 3.42126213 2.94246056 0.9375 1.5625 C0.298125 1.376875 -0.34125 1.19125 -1 1 C-0.67 0.67 -0.34 0.34 0 0 Z " fill="#BBBBBB" transform="translate(97,312)"/>
</svg>
